<svg width="25" height="24" viewBox="0 0 25 24" fill="none" xmlns="http://www.w3.org/2000/svg">
<path fill-rule="evenodd" clip-rule="evenodd" d="M12.1167 0C5.48928 0 0.116699 5.37258 0.116699 12C0.116699 18.6274 5.48928 24 12.1167 24C18.7441 24 24.1167 18.6274 24.1167 12C24.1167 5.37258 18.7441 0 12.1167 0ZM4.96575 9.45274C6.25654 9.05607 8.57414 8.62971 11.1863 8.7045C13.7987 8.77929 16.6041 9.35204 18.9627 10.8542C19.5463 11.2259 20.3207 11.0541 20.6924 10.4705C21.0641 9.88686 20.8923 9.11241 20.3087 8.74071C17.445 6.91685 14.1498 6.28257 11.258 6.19978C8.36585 6.11698 5.7756 6.58248 4.22969 7.05755C3.56827 7.26081 3.19686 7.96176 3.40012 8.62317C3.60338 9.28459 4.30433 9.656 4.96575 9.45274ZM10.7555 12.5767C8.57903 12.5123 6.64982 12.8798 5.58427 13.2179C4.92474 13.4272 4.22042 13.0623 4.01112 12.4027C3.80183 11.7432 4.16682 11.0389 4.82635 10.8296C6.15337 10.4085 8.36361 9.99914 10.8296 10.072C13.2965 10.145 16.1197 10.704 18.5773 12.3203C19.1554 12.7005 19.3158 13.4774 18.9356 14.0555C18.5554 14.6336 17.7785 14.7941 17.2004 14.4138C15.2533 13.1333 12.9311 12.641 10.7555 12.5767ZM6.05055 16.6947C6.96736 16.3927 8.62322 16.0655 10.4905 16.1228C12.3558 16.1801 14.3532 16.6179 16.0326 17.7645C16.4897 18.0766 17.1134 17.9591 17.4255 17.5019C17.7376 17.0447 17.62 16.4211 17.1629 16.109C15.0706 14.6806 12.662 14.1839 10.552 14.1192C8.44397 14.0545 6.55528 14.4178 5.42335 14.7907C4.89759 14.9639 4.61178 15.5305 4.78498 16.0563C4.95818 16.5821 5.52479 16.8679 6.05055 16.6947Z" fill="#959595"/>
</svg>
